<mxfile host="65bd71144e" modified="2021-03-06T11:52:00.503Z" agent="5.0 (Macintosh; Intel Mac OS X 10_15_7) AppleWebKit/537.36 (KHTML, like Gecko) Chrome/88.0.4324.192 Safari/537.36" etag="SPoV4YLaXp-iVUrd_ROV" version="13.10.0" type="embed">
    <diagram id="K7O8cc6z2td5jo4Q_2vw" name="main">
        <mxGraphModel dx="861" dy="606" grid="1" gridSize="10" guides="1" tooltips="1" connect="1" arrows="1" fold="1" page="1" pageScale="1" pageWidth="827" pageHeight="1169" math="0" shadow="0">
            <root>
                <mxCell id="0"/>
                <mxCell id="1" parent="0"/>
                <mxCell id="2" value="payment" style="rounded=0;whiteSpace=wrap;html=1;fontSize=6;verticalAlign=middle;sketch=1;dashed=1;dashPattern=1 4;fillColor=none;" parent="1" vertex="1">
                    <mxGeometry x="270" y="40" width="40" height="40" as="geometry"/>
                </mxCell>
                <mxCell id="33" style="edgeStyle=orthogonalEdgeStyle;rounded=0;orthogonalLoop=1;jettySize=auto;html=1;endArrow=open;endFill=0;sketch=1;dashed=1;dashPattern=1 4;exitX=0;exitY=0.5;exitDx=0;exitDy=0;" parent="1" source="152" target="31" edge="1">
                    <mxGeometry relative="1" as="geometry">
                        <mxPoint x="290" y="270" as="sourcePoint"/>
                        <Array as="points">
                            <mxPoint x="270" y="280"/>
                        </Array>
                    </mxGeometry>
                </mxCell>
                <mxCell id="34" style="edgeStyle=orthogonalEdgeStyle;rounded=0;orthogonalLoop=1;jettySize=auto;html=1;endArrow=open;endFill=0;sketch=1;dashed=1;dashPattern=1 4;exitX=1;exitY=0.5;exitDx=0;exitDy=0;" parent="1" source="152" target="32" edge="1">
                    <mxGeometry relative="1" as="geometry">
                        <mxPoint x="290" y="270" as="sourcePoint"/>
                        <Array as="points">
                            <mxPoint x="320" y="240"/>
                        </Array>
                    </mxGeometry>
                </mxCell>
                <mxCell id="16" style="edgeStyle=orthogonalEdgeStyle;rounded=0;orthogonalLoop=1;jettySize=auto;html=1;endArrow=open;endFill=0;sketch=1;dashed=1;dashPattern=1 4;" parent="1" source="10" target="11" edge="1">
                    <mxGeometry relative="1" as="geometry"/>
                </mxCell>
                <mxCell id="18" style="edgeStyle=orthogonalEdgeStyle;rounded=0;orthogonalLoop=1;jettySize=auto;html=1;endArrow=open;endFill=0;sketch=1;dashed=1;dashPattern=1 4;" parent="1" source="10" target="12" edge="1">
                    <mxGeometry relative="1" as="geometry">
                        <Array as="points">
                            <mxPoint x="490" y="140"/>
                        </Array>
                    </mxGeometry>
                </mxCell>
                <mxCell id="19" style="edgeStyle=orthogonalEdgeStyle;rounded=0;orthogonalLoop=1;jettySize=auto;html=1;endArrow=open;endFill=0;sketch=1;dashed=1;dashPattern=1 4;" parent="1" source="10" target="13" edge="1">
                    <mxGeometry relative="1" as="geometry">
                        <mxPoint x="400" y="80" as="sourcePoint"/>
                        <Array as="points">
                            <mxPoint x="450" y="140"/>
                            <mxPoint x="410" y="140"/>
                        </Array>
                    </mxGeometry>
                </mxCell>
                <mxCell id="10" value="payment" style="rounded=0;whiteSpace=wrap;html=1;fontSize=6;verticalAlign=middle;sketch=1;dashed=1;dashPattern=1 4;fillColor=none;" parent="1" vertex="1">
                    <mxGeometry x="430" y="120" width="40" height="40" as="geometry"/>
                </mxCell>
                <mxCell id="17" style="edgeStyle=orthogonalEdgeStyle;rounded=0;orthogonalLoop=1;jettySize=auto;html=1;endArrow=open;endFill=0;sketch=1;dashed=1;dashPattern=1 4;" parent="1" source="11" target="12" edge="1">
                    <mxGeometry relative="1" as="geometry">
                        <Array as="points">
                            <mxPoint x="450" y="260"/>
                            <mxPoint x="480" y="260"/>
                        </Array>
                    </mxGeometry>
                </mxCell>
                <mxCell id="11" value="payment" style="rounded=0;whiteSpace=wrap;html=1;fontSize=6;verticalAlign=middle;sketch=1;dashed=1;dashPattern=1 4;fillColor=none;" parent="1" vertex="1">
                    <mxGeometry x="430" y="200" width="40" height="40" as="geometry"/>
                </mxCell>
                <mxCell id="12" value="payment" style="rounded=0;whiteSpace=wrap;html=1;fontSize=6;verticalAlign=middle;sketch=1;dashed=1;dashPattern=1 4;fillColor=none;" parent="1" vertex="1">
                    <mxGeometry x="470" y="280" width="40" height="40" as="geometry"/>
                </mxCell>
                <mxCell id="13" value="payment" style="rounded=0;whiteSpace=wrap;html=1;fontSize=6;verticalAlign=middle;sketch=1;dashed=1;dashPattern=1 4;fillColor=none;" parent="1" vertex="1">
                    <mxGeometry x="390" y="280" width="40" height="40" as="geometry"/>
                </mxCell>
                <mxCell id="21" style="edgeStyle=orthogonalEdgeStyle;rounded=0;orthogonalLoop=1;jettySize=auto;html=1;endArrow=open;endFill=0;entryX=0.75;entryY=0;entryDx=0;entryDy=0;sketch=1;dashed=1;dashPattern=1 4;" parent="1" source="11" target="13" edge="1">
                    <mxGeometry relative="1" as="geometry">
                        <Array as="points">
                            <mxPoint x="450" y="260"/>
                            <mxPoint x="420" y="260"/>
                        </Array>
                    </mxGeometry>
                </mxCell>
                <mxCell id="22" style="edgeStyle=orthogonalEdgeStyle;rounded=0;orthogonalLoop=1;jettySize=auto;html=1;endArrow=open;endFill=0;sketch=1;dashed=1;dashPattern=1 4;" parent="1" source="25" target="27" edge="1">
                    <mxGeometry relative="1" as="geometry"/>
                </mxCell>
                <mxCell id="23" style="edgeStyle=orthogonalEdgeStyle;rounded=0;orthogonalLoop=1;jettySize=auto;html=1;endArrow=open;endFill=0;sketch=1;dashed=1;dashPattern=1 4;" parent="1" source="25" target="28" edge="1">
                    <mxGeometry relative="1" as="geometry">
                        <Array as="points">
                            <mxPoint x="650" y="140"/>
                        </Array>
                    </mxGeometry>
                </mxCell>
                <mxCell id="24" style="edgeStyle=orthogonalEdgeStyle;rounded=0;orthogonalLoop=1;jettySize=auto;html=1;endArrow=open;endFill=0;sketch=1;dashed=1;dashPattern=1 4;" parent="1" source="25" target="29" edge="1">
                    <mxGeometry relative="1" as="geometry">
                        <mxPoint x="560" y="80" as="sourcePoint"/>
                        <Array as="points">
                            <mxPoint x="610" y="140"/>
                            <mxPoint x="570" y="140"/>
                        </Array>
                    </mxGeometry>
                </mxCell>
                <mxCell id="25" value="payment" style="rounded=0;whiteSpace=wrap;html=1;fontSize=6;verticalAlign=middle;sketch=1;dashed=1;dashPattern=1 4;fillColor=none;" parent="1" vertex="1">
                    <mxGeometry x="590" y="120" width="40" height="40" as="geometry"/>
                </mxCell>
                <mxCell id="26" style="edgeStyle=orthogonalEdgeStyle;rounded=0;orthogonalLoop=1;jettySize=auto;html=1;endArrow=open;endFill=0;sketch=1;dashed=1;dashPattern=1 4;" parent="1" source="27" target="28" edge="1">
                    <mxGeometry relative="1" as="geometry">
                        <Array as="points">
                            <mxPoint x="610" y="260"/>
                            <mxPoint x="640" y="260"/>
                        </Array>
                    </mxGeometry>
                </mxCell>
                <mxCell id="27" value="payment" style="rounded=0;whiteSpace=wrap;html=1;fontSize=6;verticalAlign=middle;sketch=1;dashed=1;dashPattern=1 4;fillColor=none;" parent="1" vertex="1">
                    <mxGeometry x="590" y="200" width="40" height="40" as="geometry"/>
                </mxCell>
                <mxCell id="28" value="payment" style="rounded=0;whiteSpace=wrap;html=1;fontSize=6;verticalAlign=middle;sketch=1;dashed=1;dashPattern=1 4;fillColor=none;" parent="1" vertex="1">
                    <mxGeometry x="630" y="280" width="40" height="40" as="geometry"/>
                </mxCell>
                <mxCell id="29" value="payment" style="rounded=0;whiteSpace=wrap;html=1;fontSize=6;verticalAlign=middle;sketch=1;dashed=1;dashPattern=1 4;fillColor=none;" parent="1" vertex="1">
                    <mxGeometry x="550" y="280" width="40" height="40" as="geometry"/>
                </mxCell>
                <mxCell id="30" style="edgeStyle=orthogonalEdgeStyle;rounded=0;orthogonalLoop=1;jettySize=auto;html=1;endArrow=open;endFill=0;entryX=0.75;entryY=0;entryDx=0;entryDy=0;sketch=1;dashed=1;dashPattern=1 4;" parent="1" source="27" target="29" edge="1">
                    <mxGeometry relative="1" as="geometry">
                        <Array as="points">
                            <mxPoint x="610" y="260"/>
                            <mxPoint x="580" y="260"/>
                        </Array>
                    </mxGeometry>
                </mxCell>
                <mxCell id="50" style="edgeStyle=orthogonalEdgeStyle;rounded=0;orthogonalLoop=1;jettySize=auto;html=1;endArrow=open;endFill=0;sketch=1;dashed=1;dashPattern=1 4;" parent="1" source="31" target="32" edge="1">
                    <mxGeometry relative="1" as="geometry">
                        <Array as="points">
                            <mxPoint x="310" y="300"/>
                        </Array>
                    </mxGeometry>
                </mxCell>
                <mxCell id="52" style="edgeStyle=orthogonalEdgeStyle;rounded=0;orthogonalLoop=1;jettySize=auto;html=1;endArrow=open;endFill=0;sketch=1;dashed=1;dashPattern=1 4;" parent="1" source="31" target="51" edge="1">
                    <mxGeometry relative="1" as="geometry"/>
                </mxCell>
                <mxCell id="31" value="payment" style="rounded=0;whiteSpace=wrap;html=1;fontSize=6;verticalAlign=middle;sketch=1;dashed=1;dashPattern=1 4;fillColor=none;" parent="1" vertex="1">
                    <mxGeometry x="240" y="280" width="40" height="40" as="geometry"/>
                </mxCell>
                <mxCell id="32" value="payment" style="rounded=0;whiteSpace=wrap;html=1;fontSize=6;verticalAlign=middle;sketch=1;dashed=1;dashPattern=1 4;fillColor=none;" parent="1" vertex="1">
                    <mxGeometry x="300" y="360" width="40" height="40" as="geometry"/>
                </mxCell>
                <mxCell id="37" style="edgeStyle=orthogonalEdgeStyle;rounded=0;orthogonalLoop=1;jettySize=auto;html=1;endArrow=open;endFill=0;sketch=1;dashed=1;dashPattern=1 4;" parent="1" source="35" target="10" edge="1">
                    <mxGeometry relative="1" as="geometry"/>
                </mxCell>
                <mxCell id="35" value="payment" style="rounded=0;whiteSpace=wrap;html=1;fontSize=6;verticalAlign=middle;sketch=1;dashed=1;dashPattern=1 4;fillColor=none;" parent="1" vertex="1">
                    <mxGeometry x="430" y="40" width="40" height="40" as="geometry"/>
                </mxCell>
                <mxCell id="38" style="edgeStyle=orthogonalEdgeStyle;rounded=0;orthogonalLoop=1;jettySize=auto;html=1;endArrow=open;endFill=0;sketch=1;dashed=1;dashPattern=1 4;" parent="1" source="36" target="25" edge="1">
                    <mxGeometry relative="1" as="geometry"/>
                </mxCell>
                <mxCell id="36" value="payment" style="rounded=0;whiteSpace=wrap;html=1;fontSize=6;verticalAlign=middle;sketch=1;dashed=1;dashPattern=1 4;fillColor=none;" parent="1" vertex="1">
                    <mxGeometry x="590" y="40" width="40" height="40" as="geometry"/>
                </mxCell>
                <mxCell id="39" style="edgeStyle=orthogonalEdgeStyle;rounded=0;orthogonalLoop=1;jettySize=auto;html=1;endArrow=open;endFill=0;sketch=1;dashed=1;dashPattern=1 4;" parent="1" source="42" target="44" edge="1">
                    <mxGeometry relative="1" as="geometry"/>
                </mxCell>
                <mxCell id="40" style="edgeStyle=orthogonalEdgeStyle;rounded=0;orthogonalLoop=1;jettySize=auto;html=1;endArrow=open;endFill=0;sketch=1;dashed=1;dashPattern=1 4;" parent="1" source="42" target="45" edge="1">
                    <mxGeometry relative="1" as="geometry">
                        <Array as="points">
                            <mxPoint x="810" y="140"/>
                        </Array>
                    </mxGeometry>
                </mxCell>
                <mxCell id="41" style="edgeStyle=orthogonalEdgeStyle;rounded=0;orthogonalLoop=1;jettySize=auto;html=1;endArrow=open;endFill=0;sketch=1;dashed=1;dashPattern=1 4;" parent="1" source="42" target="46" edge="1">
                    <mxGeometry relative="1" as="geometry">
                        <mxPoint x="720" y="80" as="sourcePoint"/>
                        <Array as="points">
                            <mxPoint x="770" y="140"/>
                            <mxPoint x="730" y="140"/>
                        </Array>
                    </mxGeometry>
                </mxCell>
                <mxCell id="42" value="payment" style="rounded=0;whiteSpace=wrap;html=1;fontSize=6;verticalAlign=middle;sketch=1;dashed=1;dashPattern=1 4;fillColor=none;" parent="1" vertex="1">
                    <mxGeometry x="750" y="120" width="40" height="40" as="geometry"/>
                </mxCell>
                <mxCell id="43" style="edgeStyle=orthogonalEdgeStyle;rounded=0;orthogonalLoop=1;jettySize=auto;html=1;endArrow=open;endFill=0;sketch=1;dashed=1;dashPattern=1 4;" parent="1" source="44" target="45" edge="1">
                    <mxGeometry relative="1" as="geometry">
                        <Array as="points">
                            <mxPoint x="770" y="260"/>
                            <mxPoint x="800" y="260"/>
                        </Array>
                    </mxGeometry>
                </mxCell>
                <mxCell id="44" value="payment" style="rounded=0;whiteSpace=wrap;html=1;fontSize=6;verticalAlign=middle;sketch=1;dashed=1;dashPattern=1 4;fillColor=none;" parent="1" vertex="1">
                    <mxGeometry x="750" y="200" width="40" height="40" as="geometry"/>
                </mxCell>
                <mxCell id="45" value="payment" style="rounded=0;whiteSpace=wrap;html=1;fontSize=6;verticalAlign=middle;sketch=1;dashed=1;dashPattern=1 4;fillColor=none;" parent="1" vertex="1">
                    <mxGeometry x="790" y="280" width="40" height="40" as="geometry"/>
                </mxCell>
                <mxCell id="46" value="payment" style="rounded=0;whiteSpace=wrap;html=1;fontSize=6;verticalAlign=middle;sketch=1;dashed=1;dashPattern=1 4;fillColor=none;" parent="1" vertex="1">
                    <mxGeometry x="710" y="280" width="40" height="40" as="geometry"/>
                </mxCell>
                <mxCell id="47" style="edgeStyle=orthogonalEdgeStyle;rounded=0;orthogonalLoop=1;jettySize=auto;html=1;endArrow=open;endFill=0;entryX=0.75;entryY=0;entryDx=0;entryDy=0;sketch=1;dashed=1;dashPattern=1 4;" parent="1" source="44" target="46" edge="1">
                    <mxGeometry relative="1" as="geometry">
                        <Array as="points">
                            <mxPoint x="770" y="260"/>
                            <mxPoint x="740" y="260"/>
                        </Array>
                    </mxGeometry>
                </mxCell>
                <mxCell id="48" style="edgeStyle=orthogonalEdgeStyle;rounded=0;orthogonalLoop=1;jettySize=auto;html=1;endArrow=open;endFill=0;sketch=1;dashed=1;dashPattern=1 4;" parent="1" source="49" target="42" edge="1">
                    <mxGeometry relative="1" as="geometry"/>
                </mxCell>
                <mxCell id="49" value="payment" style="rounded=0;whiteSpace=wrap;html=1;fontSize=6;verticalAlign=middle;sketch=1;dashed=1;dashPattern=1 4;fillColor=none;" parent="1" vertex="1">
                    <mxGeometry x="750" y="40" width="40" height="40" as="geometry"/>
                </mxCell>
                <mxCell id="51" value="payment" style="rounded=0;whiteSpace=wrap;html=1;fontSize=6;verticalAlign=middle;sketch=1;dashed=1;dashPattern=1 4;fillColor=none;" parent="1" vertex="1">
                    <mxGeometry x="240" y="360" width="40" height="40" as="geometry"/>
                </mxCell>
                <mxCell id="66" value="subject one" style="rounded=0;whiteSpace=wrap;html=1;fontSize=6;verticalAlign=middle;sketch=1;dashed=1;dashPattern=1 4;fillColor=none;" parent="1" vertex="1">
                    <mxGeometry x="240" y="90" width="40" height="20" as="geometry"/>
                </mxCell>
                <mxCell id="67" value="bridge one" style="rounded=0;whiteSpace=wrap;html=1;fontSize=6;verticalAlign=middle;sketch=1;dashed=1;dashPattern=1 4;fillColor=none;" parent="1" vertex="1">
                    <mxGeometry x="240" y="120" width="40" height="20" as="geometry"/>
                </mxCell>
                <mxCell id="68" value="api provider" style="rounded=0;whiteSpace=wrap;html=1;fontSize=6;verticalAlign=middle;sketch=1;dashed=1;dashPattern=1 4;fillColor=none;" parent="1" vertex="1">
                    <mxGeometry x="190" y="120" width="40" height="20" as="geometry"/>
                </mxCell>
                <mxCell id="69" value="value one" style="rounded=0;whiteSpace=wrap;html=1;fontSize=6;verticalAlign=middle;sketch=1;dashed=1;dashPattern=1 4;fillColor=none;" parent="1" vertex="1">
                    <mxGeometry x="240" y="180" width="40" height="20" as="geometry"/>
                </mxCell>
                <mxCell id="70" value="object one" style="rounded=0;whiteSpace=wrap;html=1;fontSize=6;verticalAlign=middle;sketch=1;dashed=1;dashPattern=1 4;fillColor=none;" parent="1" vertex="1">
                    <mxGeometry x="240" y="150" width="40" height="20" as="geometry"/>
                </mxCell>
                <mxCell id="71" value="title generator" style="rounded=0;whiteSpace=wrap;html=1;fontSize=6;verticalAlign=middle;sketch=1;dashed=1;dashPattern=1 4;fillColor=none;" parent="1" vertex="1">
                    <mxGeometry x="190" y="90" width="40" height="20" as="geometry"/>
                </mxCell>
                <mxCell id="72" value="from object generator" style="rounded=0;whiteSpace=wrap;html=1;fontSize=6;verticalAlign=middle;sketch=1;dashed=1;dashPattern=1 4;fillColor=none;" parent="1" vertex="1">
                    <mxGeometry x="190" y="180" width="40" height="20" as="geometry"/>
                </mxCell>
                <mxCell id="73" value="subject bridge provider usage" style="rounded=0;whiteSpace=wrap;html=1;fontSize=6;verticalAlign=middle;sketch=1;dashed=1;dashPattern=1 4;fillColor=none;" parent="1" vertex="1">
                    <mxGeometry x="460" y="160" width="40" height="40" as="geometry"/>
                </mxCell>
                <mxCell id="75" value="if !freezed&lt;br&gt;subject bridge provider usage" style="rounded=0;whiteSpace=wrap;html=1;fontSize=6;verticalAlign=middle;sketch=1;dashed=1;dashPattern=1 4;fillColor=none;" parent="1" vertex="1">
                    <mxGeometry x="720" y="160" width="40" height="40" as="geometry"/>
                </mxCell>
                <mxCell id="123" style="rounded=0;orthogonalLoop=1;jettySize=auto;html=1;endArrow=oval;endFill=0;dashed=1;dashPattern=1 1;strokeColor=#FF0000;" parent="1" source="76" target="120" edge="1">
                    <mxGeometry relative="1" as="geometry"/>
                </mxCell>
                <mxCell id="76" value="can insert" style="rounded=0;whiteSpace=wrap;html=1;fontSize=6;verticalAlign=middle;sketch=0;dashed=1;dashPattern=1 1;strokeColor=#FF0000;fontColor=#FF0000;fillColor=none;" parent="1" vertex="1">
                    <mxGeometry x="150" y="50" width="40" height="20" as="geometry"/>
                </mxCell>
                <mxCell id="82" value="created" style="rounded=0;whiteSpace=wrap;html=1;fontSize=6;verticalAlign=middle;sketch=1;dashed=1;dashPattern=1 4;fillColor=none;" parent="1" vertex="1">
                    <mxGeometry x="240" y="50" width="40" height="20" as="geometry"/>
                </mxCell>
                <mxCell id="85" value="freeze" style="rounded=0;whiteSpace=wrap;html=1;fontSize=6;verticalAlign=middle;sketch=1;dashed=1;dashPattern=1 4;fillColor=none;" parent="1" vertex="1">
                    <mxGeometry x="210" y="290" width="40" height="20" as="geometry"/>
                </mxCell>
                <mxCell id="87" value="unfreeze" style="rounded=0;whiteSpace=wrap;html=1;fontSize=6;verticalAlign=middle;sketch=1;dashed=1;dashPattern=1 4;fillColor=none;" parent="1" vertex="1">
                    <mxGeometry x="210" y="370" width="40" height="20" as="geometry"/>
                </mxCell>
                <mxCell id="88" value="transfer" style="rounded=0;whiteSpace=wrap;html=1;fontSize=6;verticalAlign=middle;sketch=1;dashed=1;dashPattern=1 4;fillColor=none;" parent="1" vertex="1">
                    <mxGeometry x="330" y="370" width="40" height="20" as="geometry"/>
                </mxCell>
                <mxCell id="89" value="transfer" style="rounded=0;whiteSpace=wrap;html=1;fontSize=6;verticalAlign=middle;sketch=1;dashed=1;dashPattern=1 4;fillColor=none;" parent="1" vertex="1">
                    <mxGeometry x="780" y="50" width="40" height="20" as="geometry"/>
                </mxCell>
                <mxCell id="90" value="transfer" style="rounded=0;whiteSpace=wrap;html=1;fontSize=6;verticalAlign=middle;sketch=1;dashed=1;dashPattern=1 4;fillColor=none;" parent="1" vertex="1">
                    <mxGeometry x="780" y="120" width="40" height="20" as="geometry"/>
                </mxCell>
                <mxCell id="91" value="start" style="rounded=0;whiteSpace=wrap;html=1;fontSize=6;verticalAlign=middle;sketch=1;dashed=1;dashPattern=1 4;fillColor=none;" parent="1" vertex="1">
                    <mxGeometry x="780" y="140" width="40" height="20" as="geometry"/>
                </mxCell>
                <mxCell id="93" value="transfer" style="rounded=0;whiteSpace=wrap;html=1;fontSize=6;verticalAlign=middle;sketch=1;dashed=1;dashPattern=1 4;fillColor=none;" parent="1" vertex="1">
                    <mxGeometry x="780" y="200" width="40" height="20" as="geometry"/>
                </mxCell>
                <mxCell id="94" value="process" style="rounded=0;whiteSpace=wrap;html=1;fontSize=6;verticalAlign=middle;sketch=1;dashed=1;dashPattern=1 4;fillColor=none;" parent="1" vertex="1">
                    <mxGeometry x="780" y="220" width="40" height="20" as="geometry"/>
                </mxCell>
                <mxCell id="96" value="transfer" style="rounded=0;whiteSpace=wrap;html=1;fontSize=6;verticalAlign=middle;sketch=1;dashed=1;dashPattern=1 4;fillColor=none;" parent="1" vertex="1">
                    <mxGeometry x="820" y="280" width="40" height="20" as="geometry"/>
                </mxCell>
                <mxCell id="97" value="resolve" style="rounded=0;whiteSpace=wrap;html=1;fontSize=6;verticalAlign=middle;sketch=1;dashed=1;dashPattern=1 4;fillColor=none;" parent="1" vertex="1">
                    <mxGeometry x="820" y="300" width="40" height="20" as="geometry"/>
                </mxCell>
                <mxCell id="98" value="transfer" style="rounded=0;whiteSpace=wrap;html=1;fontSize=6;verticalAlign=middle;sketch=1;dashed=1;dashPattern=1 4;fillColor=none;" parent="1" vertex="1">
                    <mxGeometry x="740" y="280" width="40" height="20" as="geometry"/>
                </mxCell>
                <mxCell id="99" value="reject" style="rounded=0;whiteSpace=wrap;html=1;fontSize=6;verticalAlign=middle;sketch=1;dashed=1;dashPattern=1 4;fillColor=none;" parent="1" vertex="1">
                    <mxGeometry x="740" y="300" width="40" height="20" as="geometry"/>
                </mxCell>
                <mxCell id="102" value="unfreeze" style="rounded=0;whiteSpace=wrap;html=1;fontSize=6;verticalAlign=middle;sketch=1;dashed=1;dashPattern=1 4;fillColor=none;" parent="1" vertex="1">
                    <mxGeometry x="660" y="280" width="40" height="20" as="geometry"/>
                </mxCell>
                <mxCell id="103" value="resolve" style="rounded=0;whiteSpace=wrap;html=1;fontSize=6;verticalAlign=middle;sketch=1;dashed=1;dashPattern=1 4;fillColor=none;" parent="1" vertex="1">
                    <mxGeometry x="660" y="300" width="40" height="20" as="geometry"/>
                </mxCell>
                <mxCell id="104" value="unfreeze" style="rounded=0;whiteSpace=wrap;html=1;fontSize=6;verticalAlign=middle;sketch=1;dashed=1;dashPattern=1 4;fillColor=none;" parent="1" vertex="1">
                    <mxGeometry x="580" y="280" width="40" height="20" as="geometry"/>
                </mxCell>
                <mxCell id="105" value="reject" style="rounded=0;whiteSpace=wrap;html=1;fontSize=6;verticalAlign=middle;sketch=1;dashed=1;dashPattern=1 4;fillColor=none;" parent="1" vertex="1">
                    <mxGeometry x="580" y="300" width="40" height="20" as="geometry"/>
                </mxCell>
                <mxCell id="106" value="unfreeze" style="rounded=0;whiteSpace=wrap;html=1;fontSize=6;verticalAlign=middle;sketch=1;dashed=1;dashPattern=1 4;fillColor=none;" parent="1" vertex="1">
                    <mxGeometry x="620" y="200" width="40" height="20" as="geometry"/>
                </mxCell>
                <mxCell id="107" value="process" style="rounded=0;whiteSpace=wrap;html=1;fontSize=6;verticalAlign=middle;sketch=1;dashed=1;dashPattern=1 4;fillColor=none;" parent="1" vertex="1">
                    <mxGeometry x="620" y="220" width="40" height="20" as="geometry"/>
                </mxCell>
                <mxCell id="108" value="unfreeze" style="rounded=0;whiteSpace=wrap;html=1;fontSize=6;verticalAlign=middle;sketch=1;dashed=1;dashPattern=1 4;fillColor=none;" parent="1" vertex="1">
                    <mxGeometry x="620" y="120" width="40" height="20" as="geometry"/>
                </mxCell>
                <mxCell id="109" value="start" style="rounded=0;whiteSpace=wrap;html=1;fontSize=6;verticalAlign=middle;sketch=1;dashed=1;dashPattern=1 4;fillColor=none;" parent="1" vertex="1">
                    <mxGeometry x="620" y="140" width="40" height="20" as="geometry"/>
                </mxCell>
                <mxCell id="110" value="unfreeze" style="rounded=0;whiteSpace=wrap;html=1;fontSize=6;verticalAlign=middle;sketch=1;dashed=1;dashPattern=1 4;fillColor=none;" parent="1" vertex="1">
                    <mxGeometry x="620" y="50" width="40" height="20" as="geometry"/>
                </mxCell>
                <mxCell id="111" value="freeze" style="rounded=0;whiteSpace=wrap;html=1;fontSize=6;verticalAlign=middle;sketch=1;dashed=1;dashPattern=1 4;fillColor=none;" parent="1" vertex="1">
                    <mxGeometry x="500" y="280" width="40" height="20" as="geometry"/>
                </mxCell>
                <mxCell id="112" value="reject" style="rounded=0;whiteSpace=wrap;html=1;fontSize=6;verticalAlign=middle;sketch=1;dashed=1;dashPattern=1 4;fillColor=none;" parent="1" vertex="1">
                    <mxGeometry x="420" y="300" width="40" height="20" as="geometry"/>
                </mxCell>
                <mxCell id="113" value="freeze" style="rounded=0;whiteSpace=wrap;html=1;fontSize=6;verticalAlign=middle;sketch=1;dashed=1;dashPattern=1 4;fillColor=none;" parent="1" vertex="1">
                    <mxGeometry x="420" y="280" width="40" height="20" as="geometry"/>
                </mxCell>
                <mxCell id="114" value="process" style="rounded=0;whiteSpace=wrap;html=1;fontSize=6;verticalAlign=middle;sketch=1;dashed=1;dashPattern=1 4;fillColor=none;" parent="1" vertex="1">
                    <mxGeometry x="460" y="220" width="40" height="20" as="geometry"/>
                </mxCell>
                <mxCell id="115" value="freeze" style="rounded=0;whiteSpace=wrap;html=1;fontSize=6;verticalAlign=middle;sketch=1;dashed=1;dashPattern=1 4;fillColor=none;" parent="1" vertex="1">
                    <mxGeometry x="460" y="200" width="40" height="20" as="geometry"/>
                </mxCell>
                <mxCell id="116" value="start" style="rounded=0;whiteSpace=wrap;html=1;fontSize=6;verticalAlign=middle;sketch=1;dashed=1;dashPattern=1 4;fillColor=none;" parent="1" vertex="1">
                    <mxGeometry x="460" y="140" width="40" height="20" as="geometry"/>
                </mxCell>
                <mxCell id="117" value="freeze" style="rounded=0;whiteSpace=wrap;html=1;fontSize=6;verticalAlign=middle;sketch=1;dashed=1;dashPattern=1 4;fillColor=none;" parent="1" vertex="1">
                    <mxGeometry x="460" y="120" width="40" height="20" as="geometry"/>
                </mxCell>
                <mxCell id="118" value="freeze" style="rounded=0;whiteSpace=wrap;html=1;fontSize=6;verticalAlign=middle;sketch=1;dashed=1;dashPattern=1 4;fillColor=none;" parent="1" vertex="1">
                    <mxGeometry x="460" y="50" width="40" height="20" as="geometry"/>
                </mxCell>
                <mxCell id="120" value="payment&lt;br&gt;creator" style="rounded=0;whiteSpace=wrap;html=1;fontSize=6;verticalAlign=middle;sketch=1;dashed=1;dashPattern=1 4;fillColor=none;" parent="1" vertex="1">
                    <mxGeometry x="70" y="40" width="40" height="40" as="geometry"/>
                </mxCell>
                <mxCell id="121" value="payment&lt;br&gt;service" style="rounded=0;whiteSpace=wrap;html=1;fontSize=6;verticalAlign=middle;sketch=1;dashed=1;dashPattern=1 4;fillColor=none;" parent="1" vertex="1">
                    <mxGeometry x="70" y="100" width="40" height="40" as="geometry"/>
                </mxCell>
                <mxCell id="124" style="rounded=0;orthogonalLoop=1;jettySize=auto;html=1;endArrow=open;endFill=0;dashed=1;dashPattern=1 1;strokeColor=#FF0000;" parent="1" source="76" target="82" edge="1">
                    <mxGeometry relative="1" as="geometry"/>
                </mxCell>
                <mxCell id="125" value="can insert" style="rounded=0;whiteSpace=wrap;html=1;fontSize=6;verticalAlign=middle;sketch=0;dashed=1;dashPattern=1 1;strokeColor=#FF0000;fontColor=#FF0000;fillColor=none;" parent="1" vertex="1">
                    <mxGeometry x="130" y="120" width="40" height="20" as="geometry"/>
                </mxCell>
                <mxCell id="126" style="rounded=0;orthogonalLoop=1;jettySize=auto;html=1;endArrow=oval;endFill=0;dashed=1;dashPattern=1 1;strokeColor=#FF0000;" parent="1" source="125" target="121" edge="1">
                    <mxGeometry relative="1" as="geometry"/>
                </mxCell>
                <mxCell id="127" style="rounded=0;orthogonalLoop=1;jettySize=auto;html=1;endArrow=open;endFill=0;dashed=1;dashPattern=1 1;strokeColor=#FF0000;" parent="1" source="125" target="66" edge="1">
                    <mxGeometry relative="1" as="geometry"/>
                </mxCell>
                <mxCell id="128" style="rounded=0;orthogonalLoop=1;jettySize=auto;html=1;endArrow=open;endFill=0;dashed=1;dashPattern=1 1;strokeColor=#FF0000;" parent="1" source="125" target="67" edge="1">
                    <mxGeometry relative="1" as="geometry"/>
                </mxCell>
                <mxCell id="129" style="rounded=0;orthogonalLoop=1;jettySize=auto;html=1;endArrow=open;endFill=0;dashed=1;dashPattern=1 1;strokeColor=#FF0000;" parent="1" source="125" target="70" edge="1">
                    <mxGeometry relative="1" as="geometry"/>
                </mxCell>
                <mxCell id="130" style="rounded=0;orthogonalLoop=1;jettySize=auto;html=1;endArrow=open;endFill=0;dashed=1;dashPattern=1 1;strokeColor=#FF0000;" parent="1" source="125" target="69" edge="1">
                    <mxGeometry relative="1" as="geometry"/>
                </mxCell>
                <mxCell id="131" value="can update" style="rounded=0;whiteSpace=wrap;html=1;fontSize=6;verticalAlign=middle;sketch=0;dashed=1;dashPattern=1 1;strokeColor=#FF0000;fontColor=#FF0000;fillColor=none;" parent="1" vertex="1">
                    <mxGeometry x="130" y="180" width="40" height="20" as="geometry"/>
                </mxCell>
                <mxCell id="132" value="payment&lt;br&gt;initiative" style="rounded=0;whiteSpace=wrap;html=1;fontSize=6;verticalAlign=middle;sketch=1;dashed=1;dashPattern=1 4;fillColor=none;" parent="1" vertex="1">
                    <mxGeometry x="50" y="170" width="40" height="40" as="geometry"/>
                </mxCell>
                <mxCell id="133" style="rounded=0;orthogonalLoop=1;jettySize=auto;html=1;endArrow=oval;endFill=0;dashed=1;dashPattern=1 1;strokeColor=#FF0000;" parent="1" source="131" target="132" edge="1">
                    <mxGeometry relative="1" as="geometry"/>
                </mxCell>
                <mxCell id="134" style="rounded=0;orthogonalLoop=1;jettySize=auto;html=1;endArrow=open;endFill=0;dashed=1;dashPattern=1 1;strokeColor=#FF0000;" edge="1" parent="1" source="131" target="69">
                    <mxGeometry relative="1" as="geometry"/>
                </mxCell>
                <mxCell id="135" value="can delegate" style="rounded=0;whiteSpace=wrap;html=1;fontSize=6;verticalAlign=middle;sketch=0;dashed=1;dashPattern=1 1;strokeColor=#FF0000;fontColor=#FF0000;fillColor=none;" vertex="1" parent="1">
                    <mxGeometry x="10" y="110" width="40" height="20" as="geometry"/>
                </mxCell>
                <mxCell id="136" style="rounded=0;orthogonalLoop=1;jettySize=auto;html=1;endArrow=oval;endFill=0;dashed=1;dashPattern=1 1;strokeColor=#FF0000;" edge="1" parent="1" source="135" target="120">
                    <mxGeometry relative="1" as="geometry"/>
                </mxCell>
                <mxCell id="137" style="rounded=0;orthogonalLoop=1;jettySize=auto;html=1;endArrow=open;endFill=0;dashed=1;dashPattern=1 1;strokeColor=#FF0000;" edge="1" parent="1" source="135" target="132">
                    <mxGeometry relative="1" as="geometry"/>
                </mxCell>
                <mxCell id="138" value="if" style="rounded=0;whiteSpace=wrap;html=1;fontSize=6;verticalAlign=middle;sketch=0;dashed=1;dashPattern=1 1;fillColor=none;strokeColor=#FFFF00;fontColor=#FFFF00;" vertex="1" parent="1">
                    <mxGeometry x="150" y="160" width="20" height="20" as="geometry"/>
                </mxCell>
                <mxCell id="139" style="rounded=0;orthogonalLoop=1;jettySize=auto;html=1;endArrow=open;endFill=0;dashed=1;dashPattern=1 1;exitX=1;exitY=0.5;exitDx=0;exitDy=0;strokeColor=#FFFF00;" edge="1" parent="1" source="138" target="82">
                    <mxGeometry relative="1" as="geometry"/>
                </mxCell>
                <mxCell id="140" style="rounded=0;orthogonalLoop=1;jettySize=auto;html=1;endArrow=open;endFill=0;dashed=1;dashPattern=1 1;exitX=1;exitY=0.5;exitDx=0;exitDy=0;strokeColor=#FFFF00;" edge="1" parent="1" source="141" target="82">
                    <mxGeometry relative="1" as="geometry">
                        <mxPoint x="170" y="170" as="sourcePoint"/>
                        <mxPoint x="254" y="70" as="targetPoint"/>
                    </mxGeometry>
                </mxCell>
                <mxCell id="141" value="if" style="rounded=0;whiteSpace=wrap;html=1;fontSize=6;verticalAlign=middle;sketch=0;dashed=1;dashPattern=1 1;fillColor=none;strokeColor=#FFFF00;fontColor=#FFFF00;" vertex="1" parent="1">
                    <mxGeometry x="150" y="100" width="20" height="20" as="geometry"/>
                </mxCell>
                <mxCell id="142" value="can stage" style="rounded=0;whiteSpace=wrap;html=1;fontSize=6;verticalAlign=middle;sketch=0;dashed=1;dashPattern=1 1;strokeColor=#FF0000;fontColor=#FF0000;fillColor=none;" vertex="1" parent="1">
                    <mxGeometry x="350" y="50" width="40" height="20" as="geometry"/>
                </mxCell>
                <mxCell id="143" style="rounded=0;orthogonalLoop=1;jettySize=auto;html=1;endArrow=oval;endFill=0;dashed=1;dashPattern=1 1;strokeColor=#FF0000;" edge="1" parent="1" source="154" target="132">
                    <mxGeometry relative="1" as="geometry"/>
                </mxCell>
                <mxCell id="145" style="rounded=0;orthogonalLoop=1;jettySize=auto;html=1;endArrow=open;endFill=0;dashed=1;dashPattern=1 1;strokeColor=#FF0000;exitX=1;exitY=0.5;exitDx=0;exitDy=0;" edge="1" parent="1" source="142" target="118">
                    <mxGeometry relative="1" as="geometry"/>
                </mxCell>
                <mxCell id="147" value="if" style="rounded=0;whiteSpace=wrap;html=1;fontSize=6;verticalAlign=middle;sketch=0;dashed=1;dashPattern=1 1;fillColor=none;strokeColor=#FFFF00;fontColor=#FFFF00;" vertex="1" parent="1">
                    <mxGeometry x="370" y="30" width="20" height="20" as="geometry"/>
                </mxCell>
                <mxCell id="152" value="payment" style="rounded=0;whiteSpace=wrap;html=1;fontSize=6;verticalAlign=middle;sketch=1;dashed=1;dashPattern=1 4;fillColor=none;" vertex="1" parent="1">
                    <mxGeometry x="270" y="220" width="40" height="40" as="geometry"/>
                </mxCell>
                <mxCell id="153" style="edgeStyle=orthogonalEdgeStyle;rounded=0;orthogonalLoop=1;jettySize=auto;html=1;endArrow=open;endFill=0;sketch=1;dashed=1;dashPattern=1 4;" edge="1" parent="1" source="2">
                    <mxGeometry relative="1" as="geometry">
                        <mxPoint x="290" y="270" as="sourcePoint"/>
                        <mxPoint x="290" y="220" as="targetPoint"/>
                    </mxGeometry>
                </mxCell>
                <mxCell id="154" value="can stage" style="rounded=0;whiteSpace=wrap;html=1;fontSize=6;verticalAlign=middle;sketch=0;dashed=1;dashPattern=1 1;strokeColor=#FF0000;fontColor=#FF0000;fillColor=none;" vertex="1" parent="1">
                    <mxGeometry x="160" y="230" width="40" height="20" as="geometry"/>
                </mxCell>
                <mxCell id="155" style="rounded=0;orthogonalLoop=1;jettySize=auto;html=1;endArrow=open;endFill=0;dashed=1;dashPattern=1 1;strokeColor=#FF0000;" edge="1" parent="1" source="154" target="156">
                    <mxGeometry relative="1" as="geometry">
                        <mxPoint x="250" y="250" as="targetPoint"/>
                    </mxGeometry>
                </mxCell>
                <mxCell id="156" value="filled" style="rounded=0;whiteSpace=wrap;html=1;fontSize=6;verticalAlign=middle;sketch=1;dashed=1;dashPattern=1 4;fillColor=none;" vertex="1" parent="1">
                    <mxGeometry x="240" y="230" width="40" height="20" as="geometry"/>
                </mxCell>
                <mxCell id="157" value="if" style="rounded=0;whiteSpace=wrap;html=1;fontSize=6;verticalAlign=middle;sketch=0;dashed=1;dashPattern=1 1;fillColor=none;strokeColor=#FFFF00;fontColor=#FFFF00;" vertex="1" parent="1">
                    <mxGeometry x="180" y="210" width="20" height="20" as="geometry"/>
                </mxCell>
                <mxCell id="158" style="rounded=0;orthogonalLoop=1;jettySize=auto;html=1;endArrow=open;endFill=0;dashed=1;dashPattern=1 1;strokeColor=#FFFF00;" edge="1" parent="1" source="157" target="82">
                    <mxGeometry relative="1" as="geometry"/>
                </mxCell>
                <mxCell id="159" style="rounded=0;orthogonalLoop=1;jettySize=auto;html=1;endArrow=open;endFill=0;dashed=1;dashPattern=1 1;strokeColor=#FFFF00;" edge="1" parent="1" source="157" target="66">
                    <mxGeometry relative="1" as="geometry"/>
                </mxCell>
                <mxCell id="160" style="rounded=0;orthogonalLoop=1;jettySize=auto;html=1;endArrow=open;endFill=0;dashed=1;dashPattern=1 1;strokeColor=#FFFF00;" edge="1" parent="1" source="157" target="67">
                    <mxGeometry relative="1" as="geometry"/>
                </mxCell>
                <mxCell id="161" style="rounded=0;orthogonalLoop=1;jettySize=auto;html=1;endArrow=open;endFill=0;dashed=1;dashPattern=1 1;strokeColor=#FFFF00;" edge="1" parent="1" source="157" target="70">
                    <mxGeometry relative="1" as="geometry"/>
                </mxCell>
                <mxCell id="162" style="rounded=0;orthogonalLoop=1;jettySize=auto;html=1;endArrow=open;endFill=0;dashed=1;dashPattern=1 1;strokeColor=#FFFF00;" edge="1" parent="1" source="157" target="69">
                    <mxGeometry relative="1" as="geometry"/>
                </mxCell>
                <mxCell id="182" style="rounded=0;orthogonalLoop=1;jettySize=auto;html=1;endArrow=oval;endFill=0;dashed=1;dashPattern=1 1;strokeColor=#FF0000;" edge="1" parent="1" source="142" target="121">
                    <mxGeometry relative="1" as="geometry"/>
                </mxCell>
                <mxCell id="183" style="rounded=0;orthogonalLoop=1;jettySize=auto;html=1;endArrow=open;endFill=0;dashed=1;dashPattern=1 1;strokeColor=#FFFF00;" edge="1" parent="1" source="147" target="156">
                    <mxGeometry relative="1" as="geometry"/>
                </mxCell>
                <mxCell id="184" value="can stage" style="rounded=0;whiteSpace=wrap;html=1;fontSize=6;verticalAlign=middle;sketch=0;dashed=1;dashPattern=1 1;strokeColor=#FF0000;fontColor=#FF0000;fillColor=none;" vertex="1" parent="1">
                    <mxGeometry x="350" y="130" width="40" height="20" as="geometry"/>
                </mxCell>
                <mxCell id="185" style="rounded=0;orthogonalLoop=1;jettySize=auto;html=1;endArrow=open;endFill=0;dashed=1;dashPattern=1 1;strokeColor=#FF0000;" edge="1" parent="1" source="184" target="116">
                    <mxGeometry relative="1" as="geometry"/>
                </mxCell>
                <mxCell id="186" value="if" style="rounded=0;whiteSpace=wrap;html=1;fontSize=6;verticalAlign=middle;sketch=0;dashed=1;dashPattern=1 1;fillColor=none;strokeColor=#FFFF00;fontColor=#FFFF00;" vertex="1" parent="1">
                    <mxGeometry x="370" y="110" width="20" height="20" as="geometry"/>
                </mxCell>
                <mxCell id="187" style="rounded=0;orthogonalLoop=1;jettySize=auto;html=1;endArrow=open;endFill=0;dashed=1;dashPattern=1 1;strokeColor=#FFFF00;" edge="1" parent="1" source="186" target="118">
                    <mxGeometry relative="1" as="geometry"/>
                </mxCell>
                <mxCell id="190" style="rounded=0;orthogonalLoop=1;jettySize=auto;html=1;endArrow=oval;endFill=0;dashed=1;dashPattern=1 1;strokeColor=#FF0000;" edge="1" parent="1" source="184" target="121">
                    <mxGeometry relative="1" as="geometry"/>
                </mxCell>
                <mxCell id="191" value="can stage" style="rounded=0;whiteSpace=wrap;html=1;fontSize=6;verticalAlign=middle;sketch=0;dashed=1;dashPattern=1 1;strokeColor=#FF0000;fontColor=#FF0000;fillColor=none;" vertex="1" parent="1">
                    <mxGeometry x="350" y="200" width="40" height="20" as="geometry"/>
                </mxCell>
                <mxCell id="192" value="can stage" style="rounded=0;whiteSpace=wrap;html=1;fontSize=6;verticalAlign=middle;sketch=0;dashed=1;dashPattern=1 1;strokeColor=#FF0000;fontColor=#FF0000;fillColor=none;" vertex="1" parent="1">
                    <mxGeometry x="340" y="300" width="40" height="20" as="geometry"/>
                </mxCell>
                <mxCell id="193" style="rounded=0;orthogonalLoop=1;jettySize=auto;html=1;endArrow=open;endFill=0;dashed=1;dashPattern=1 1;strokeColor=#FF0000;" edge="1" parent="1" source="191" target="114">
                    <mxGeometry relative="1" as="geometry"/>
                </mxCell>
                <mxCell id="194" style="rounded=0;orthogonalLoop=1;jettySize=auto;html=1;endArrow=open;endFill=0;dashed=1;dashPattern=1 1;strokeColor=#FF0000;" edge="1" parent="1" source="192" target="112">
                    <mxGeometry relative="1" as="geometry"/>
                </mxCell>
                <mxCell id="195" value="can stage" style="rounded=0;whiteSpace=wrap;html=1;fontSize=6;verticalAlign=middle;sketch=0;dashed=1;dashPattern=1 1;strokeColor=#FF0000;fontColor=#FF0000;fillColor=none;" vertex="1" parent="1">
                    <mxGeometry x="340" y="250" width="40" height="20" as="geometry"/>
                </mxCell>
                <mxCell id="196" style="rounded=0;orthogonalLoop=1;jettySize=auto;html=1;endArrow=open;endFill=0;dashed=1;dashPattern=1 1;strokeColor=#FF0000;" edge="1" parent="1" source="195" target="197">
                    <mxGeometry relative="1" as="geometry">
                        <mxPoint x="510" y="340" as="targetPoint"/>
                    </mxGeometry>
                </mxCell>
                <mxCell id="197" value="resolve" style="rounded=0;whiteSpace=wrap;html=1;fontSize=6;verticalAlign=middle;sketch=1;dashed=1;dashPattern=1 4;fillColor=none;" vertex="1" parent="1">
                    <mxGeometry x="500" y="300" width="40" height="20" as="geometry"/>
                </mxCell>
                <mxCell id="198" value="if" style="rounded=0;whiteSpace=wrap;html=1;fontSize=6;verticalAlign=middle;sketch=0;dashed=1;dashPattern=1 1;fillColor=none;strokeColor=#FFFF00;fontColor=#FFFF00;" vertex="1" parent="1">
                    <mxGeometry x="370" y="180" width="20" height="20" as="geometry"/>
                </mxCell>
                <mxCell id="200" value="if" style="rounded=0;whiteSpace=wrap;html=1;fontSize=6;verticalAlign=middle;sketch=0;dashed=1;dashPattern=1 1;fillColor=none;strokeColor=#FFFF00;fontColor=#FFFF00;" vertex="1" parent="1">
                    <mxGeometry x="360" y="230" width="20" height="20" as="geometry"/>
                </mxCell>
                <mxCell id="201" value="if" style="rounded=0;whiteSpace=wrap;html=1;fontSize=6;verticalAlign=middle;sketch=0;dashed=1;dashPattern=1 1;fillColor=none;strokeColor=#FFFF00;fontColor=#FFFF00;" vertex="1" parent="1">
                    <mxGeometry x="360" y="280" width="20" height="20" as="geometry"/>
                </mxCell>
                <mxCell id="202" style="rounded=0;orthogonalLoop=1;jettySize=auto;html=1;endArrow=open;endFill=0;dashed=1;dashPattern=1 1;strokeColor=#FFFF00;" edge="1" parent="1" source="198" target="116">
                    <mxGeometry relative="1" as="geometry"/>
                </mxCell>
                <mxCell id="203" style="rounded=0;orthogonalLoop=1;jettySize=auto;html=1;endArrow=open;endFill=0;dashed=1;dashPattern=1 1;strokeColor=#FFFF00;" edge="1" parent="1" source="200" target="114">
                    <mxGeometry relative="1" as="geometry"/>
                </mxCell>
                <mxCell id="204" style="rounded=0;orthogonalLoop=1;jettySize=auto;html=1;endArrow=open;endFill=0;dashed=1;dashPattern=1 1;strokeColor=#FFFF00;" edge="1" parent="1" source="201" target="114">
                    <mxGeometry relative="1" as="geometry"/>
                </mxCell>
                <mxCell id="205" style="rounded=0;orthogonalLoop=1;jettySize=auto;html=1;endArrow=oval;endFill=0;dashed=1;dashPattern=1 1;strokeColor=#FF0000;" edge="1" parent="1" source="191" target="121">
                    <mxGeometry relative="1" as="geometry"/>
                </mxCell>
                <mxCell id="206" style="rounded=0;orthogonalLoop=1;jettySize=auto;html=1;endArrow=oval;endFill=0;dashed=1;dashPattern=1 1;strokeColor=#FF0000;" edge="1" parent="1" source="195" target="121">
                    <mxGeometry relative="1" as="geometry"/>
                </mxCell>
                <mxCell id="207" style="rounded=0;orthogonalLoop=1;jettySize=auto;html=1;endArrow=oval;endFill=0;dashed=1;dashPattern=1 1;strokeColor=#FF0000;" edge="1" parent="1" source="192" target="121">
                    <mxGeometry relative="1" as="geometry"/>
                </mxCell>
            </root>
        </mxGraphModel>
    </diagram>
</mxfile>